<?xml version="1.0" encoding="utf-8"?>
<!-- Generator: Adobe Illustrator 27.6.1, SVG Export Plug-In . SVG Version: 6.00 Build 0)  -->
<svg version="1.1" id="Layer_1" xmlns="http://www.w3.org/2000/svg" xmlns:xlink="http://www.w3.org/1999/xlink" x="0px" y="0px"
	 viewBox="0 0 1800 630" style="enable-background:new 0 0 1800 630;" xml:space="preserve">
<style type="text/css">
	.st0{fill:#0C2F4F;}
	.st1{fill:#9596AE;}
	.st2{fill:url(#SVGID_1_);}
	.st3{fill:url(#SVGID_00000070101692078192461080000003741069921744300967_);}
	.st4{fill:#FFFFFF;}
	.st5{fill:none;stroke:#9596AE;stroke-width:5;stroke-linecap:round;stroke-miterlimit:10;}
</style>
<g>
	<g id="Plugin_Logo_00000143588722170484654090000001453365823179829675_">
		<path class="st0" d="M1292.5,283.5h15.8l-13.7,63.8h-15.4l13.3-63.1V283.5z M1589.6,298.5h-5.3c-9.1,0-14,2.8-21.4,10.5l2.1-9.5
			h-15.1l-10.5,47.3h15.8l4.6-20.3c1.8-9.5,8.1-14.7,18.6-14.7c2.8,0,5.6,0.7,8.4,1.4l3.2-14.7H1589.6z M1275.3,299.6
			c-1.4,6-5.6,10.5-11.2,12.6c7,1.8,9.5,8.8,8.1,15.8c-2.1,8.1-8.1,18.6-27.3,18.6h-45.2l13.7-63.1h47.3c9.5,0,17.2,4.2,14.7,15.8
			V299.6z M1246.3,319.9h-23.5l-3.5,15.1h25.6c4.6,0,8.1-3.2,8.8-7.4c1.4-4.9-1.4-7.7-7-7.7H1246.3z M1249.8,295.4H1228l-3.2,13.3
			h24.2c3.9,0,7.4-2.5,7.7-6.7c1.1-3.9,0-7-7-7L1249.8,295.4z M1149.5,276.5c-21.3,0-38.5,17.3-38.5,38.5s17.3,38.5,38.5,38.5
			s38.5-17.3,38.5-38.5S1170.8,276.5,1149.5,276.5z M1438.3,325.9v1.4h-45.6c-1.4,4.9,1.8,11.9,12.3,11.9c5.6,0,10.9-2.1,14.4-6.3
			h16.8c-7,11.2-18.9,15.8-32.9,15.8c-19.3,0-29.8-7.4-26.3-25.6c3.9-17.5,18.2-25.2,36.8-25.2
			C1434.8,297.8,1442.1,308.3,1438.3,325.9z M1424.3,318.5c0-2.8-1.4-10.5-13-10.5c-7.2-0.3-13.9,3.9-16.8,10.5h29.4H1424.3z
			 M1507,314.3l-4.9,23.5c-0.7,3.5-1.1,6.7,0,9.8h-15.8v-5.3c-6.7,5.3-16.8,7-23.8,7c-12.3,0-20.3-4.2-17.5-15.4
			c2.8-11.2,13-14,22.4-14.7l16.8-1.1c4.9-0.4,6.7-1.4,7.4-5.3c0.7-3.9-1.8-5.6-10.9-5.6c-7,0-10.5,0.4-14,7h-15.1
			c4.9-14.7,18.6-16.1,31.5-16.1C1505.6,298.2,1509.1,305.2,1507,314.3z M1489.8,324.5c-3.2,1.1-6.3,1.8-9.5,1.8l-9.5,1.1
			c-5.6,0-8.4,1.8-9.5,6c-1.1,4.2,2.5,7,8.4,7c8.1,0,17.5-4.2,19.3-11.9C1489.1,328.3,1489.8,324.5,1489.8,324.5z M1352.1,323.4
			c-1.1,8.1-8.1,14-16.1,13.7c-7,0-9.8-3.5-8.4-9.8l5.6-27.7h-15.4l-7,32.2c-3.2,14,8.8,16.8,16.8,16.8c7.7,0,15.1-2.8,21-8.1
			l-1.4,6.3h15.1l10.2-47.3h-15.8C1356.6,299.6,1352.1,323.4,1352.1,323.4z M1511.9,347.2h15.8l10.2-47.3H1522l-10.2,46.6V347.2z
			 M1525.9,283.5l-2.1,9.8h15.4l2.1-9.8C1541.3,283.5,1525.9,283.5,1525.9,283.5z"/>
	</g>
	<g id="Homebridge">
		<g id="Text">
			<path class="st1" d="M136.2,471.8h29v-31.1H178v75.9h-12.7v-33.8h-29v33.8h-12.8v-75.9h12.8v31.1H136.2z"/>
			<path class="st1" d="M222.8,517.6c-16.9,0-28.4-10.2-28.4-34.1v-9.7c0-23.9,11.4-34.1,28.4-34.1s28.5,10.2,28.5,34.1v9.7
				C251.3,507.3,239.9,517.6,222.8,517.6z M207.2,483.5c0,16.4,5.5,23,15.6,23s15.7-6.6,15.7-23v-9.7c0-16.4-5.6-23-15.7-23
				s-15.6,6.6-15.6,23V483.5z"/>
			<path class="st1" d="M301.7,484.7l21.9-44h12.2v75.9h-12.3v-50.8L306.1,502h-9L280,466.1v50.5h-12.3v-75.9h12.1L301.7,484.7z"/>
			<path class="st1" d="M401.8,440.7v11.1H368v20h30.5v11H368v22.8h33.8v11h-46.5v-75.9L401.8,440.7z"/>
			<path class="st1" d="M441,440.7c17.8,0,27,6.6,27,19.7c0.2,7.3-4.3,13.9-11.1,16.5c8.6,2.4,13.5,8.4,13.5,17.9
				c0,11.4-7.3,21.8-27,21.8h-26.8v-75.9L441,440.7L441,440.7z M429.3,471.7h12.4c9.5,0,13.4-4.3,13.4-10.6c0-5.9-3-9.5-15.1-9.5
				h-10.7L429.3,471.7z M429.3,505.5h13.3c10.2,0,15-4.2,15-11.4c0-8-5.3-11.4-16.5-11.4h-11.8V505.5z"/>
			<path class="st1" d="M527.7,516.6l-14.6-30.8h-14.7v30.8h-12.8v-75.9h25.9c17.5,0,27.9,7.6,27.9,22.7c0,10.5-5,17.2-13.8,20.4
				l16.2,32.9h-14.1V516.6z M510.6,474.8c10.8,0,16.1-2.9,16.1-11.4s-5.3-11.5-16.1-11.5h-12.2v23L510.6,474.8z"/>
			<path class="st1" d="M569.4,516.6h-12.8v-75.9h12.8V516.6z"/>
			<path class="st1" d="M589.9,516.6v-75.9h25.6c17,0,28.5,9.1,28.5,33.4v9c0,24.3-11.4,33.4-28.5,33.4L589.9,516.6z M631.2,483.1
				v-9c0-15.6-4.8-22.3-15.7-22.3h-12.9v53.8h12.9C626.4,505.6,631.2,498.7,631.2,483.1z"/>
			<path class="st1" d="M713.6,477.6v5.8c0,23.9-10.9,34.1-27.9,34.1s-28.4-10.2-28.4-34.1v-9.1c0-24.4,11.4-34.6,28.4-34.6
				c15.4,0,25.2,8.6,27.6,24.5H701c-1.9-8.8-6.7-13.4-15.3-13.4c-10.1,0-15.6,6.6-15.6,23v9.7c0,16.4,5.5,23,15.6,23
				c9.7,0,14.5-5.7,15.4-17.7H686v-11.1L713.6,477.6L713.6,477.6z"/>
			<path class="st1" d="M776.5,440.7v11.1h-33.8v20h30.5v11h-30.5v22.8h33.8v11H730v-75.9L776.5,440.7z"/>
		</g>
		<g id="Logo">
			
				<linearGradient id="SVGID_1_" gradientUnits="userSpaceOnUse" x1="450" y1="532.5001" x2="450" y2="832.5001" gradientTransform="matrix(1 0 0 1 0 -446.0001)">
				<stop  offset="0" style="stop-color:#57277C"/>
				<stop  offset="1" style="stop-color:#491F59"/>
			</linearGradient>
			<circle class="st2" cx="450" cy="236.5" r="150"/>
			
				<radialGradient id="SVGID_00000183220377242521611990000013811618075543456901_" cx="450" cy="682.5001" r="150" gradientTransform="matrix(1 0 0 1 0 -446.0001)" gradientUnits="userSpaceOnUse">
				<stop  offset="0" style="stop-color:#000000;stop-opacity:0"/>
				<stop  offset="1" style="stop-color:#000000;stop-opacity:0.1"/>
			</radialGradient>
			<circle style="fill:url(#SVGID_00000183220377242521611990000013811618075543456901_);" cx="450" cy="236.5" r="150"/>
			<path class="st4" d="M551.7,221.2h-0.2l-18.3-18.3c-0.6-0.7-1-1.6-1-2.5v-42.3c0-9-7.3-16.2-16.2-16.2h-11.5
				c-9,0-16.2,7.3-16.2,16.2v0.2l-27.1-26.2c-6.4-6.1-16.5-6-22.8,0.2L346.8,224c-6.3,6.3-6.3,16.6,0,22.9l0,0l0,0l8.7,8.7
				c6.3,6.3,16.5,6.3,22.9,0.1l70.5-69.4c1.4-1.4,3.6-1.4,5,0l69,69c1.4,1.4,1.4,3.6,0,5l-8.5,8.5c-1.4,1.4-3.6,1.4-5,0l-48.5-47
				c-6.4-6.2-16.5-6.1-22.8,0.2l-46.5,46.7c-6.3,6.3-6.3,16.6,0,22.9l8.6,8.6c6.3,6.3,16.5,6.3,22.9,0.1l25.1-24.8
				c1.4-1.4,3.6-1.4,5,0L478,300c1.4,1.4,1.4,3.6,0,5l0,0l-24.7,24.9c-0.1,0-0.2-0.1-0.3-0.1c-5.1,0-9.3,4.1-9.3,9.3
				c0,5.1,4.1,9.3,9.3,9.3c5.1,0,9.3-4.1,9.3-9.3v-0.2l24.8-24.8c6.4-6.3,6.4-16.6,0-23l0,0L487,291l-24.9-24.5
				c-6.3-6.2-16.5-6.2-22.8,0l-25.1,24.8c-1.4,1.4-3.6,1.4-5,0l-8.6-8.6c-1.4-1.4-1.4-3.6,0-5l46.5-46.7c1.4-1.4,3.6-1.4,5-0.1
				l48.5,47.1c6.4,6.1,16.5,6.1,22.8-0.2l8.5-8.5c6.3-6.3,6.3-16.6,0-22.9l-69.1-69.1c-6.3-6.3-16.5-6.3-22.9-0.1l-70.5,69.4
				c-1.4,1.4-3.6,1.4-5,0l-8.7-8.7c-1.4-1.4-1.4-3.6,0-5l91.7-91.7c1.4-1.4,3.6-1.4,5,0l48.6,47V158c0-2,1.6-3.5,3.5-3.5H516
				c2,0,3.5,1.6,3.5,3.5v42.4c0,4.3,1.7,8.5,4.8,11.5l18.2,18.2c0,0.1-0.1,0.2-0.1,0.3c0,5.1,4.2,9.3,9.3,9.2c5.1,0,9.3-4.2,9.2-9.3
				C561,225.4,556.8,221.3,551.7,221.2L551.7,221.2z"/>
		</g>
	</g>
	<g id="Divider">
		<line class="st5" x1="998" y1="14.2" x2="902" y2="614.2"/>
	</g>
</g>
</svg>
